# xmcd CD database file
#
# Track frame offsets:
#	150
#	28316
#	51918
#	64448
#	96571
#	135535
#	151491
#	170719
#
# Disc length: 2316 seconds
#
# Revision: 0
# Processed by: cddbd v1.4PL0 Copyright (c) Steve Scherf et al.
# Submitted via: CDex 1.50
#
DISCID=79090a08
DTITLE=Holly Cole - live in der Fabrik in Hamburg
DYEAR=2001
DGENRE=Jazz
TTITLE0=Train Song
TTITLE1=Jersey Girl
TTITLE2=If I were a bell
TTITLE3=Qué será será
TTITLE4=Cruisin'
TTITLE5=Dedicated to the one I love
TTITLE6=I can see clearly now
TTITLE7=Applaus
EXTD=YEAR: 2001
EXTT0=
EXTT1=
EXTT2=
EXTT3=
EXTT4=
EXTT5=
EXTT6=
EXTT7=
PLAYORDER=
